<svg xmlns="http://www.w3.org/2000/svg" width="1800" height="720" viewBox="0 0 1800 720" role="img" aria-labelledby="title"><title id="title">DAY 02 视频与播客 — 黑金书页课程视觉</title><defs><linearGradient id="gold" x2="1" y2="1"><stop stop-color="#72532c"/><stop offset=".42" stop-color="#efd19b"/><stop offset=".65" stop-color="#9a723a"/><stop offset="1" stop-color="#d5b276"/></linearGradient><linearGradient id="paper" x2=".9" y2="1"><stop stop-color="#29251e"/><stop offset=".42" stop-color="#11100d"/><stop offset="1" stop-color="#050504"/></linearGradient><radialGradient id="orb" cx=".3" cy=".2" r=".9"><stop stop-color="#e3c38a"/><stop offset=".32" stop-color="#74552d"/><stop offset=".72" stop-color="#231b10"/><stop offset="1" stop-color="#070605"/></radialGradient><radialGradient id="glow"><stop stop-color="#67502a" stop-opacity=".19"/><stop offset="1" stop-color="#050504" stop-opacity="0"/></radialGradient></defs><rect width="1800" height="720" fill="#050504"/><ellipse cx="920" cy="390" rx="740" ry="330" fill="url(#glow)"/><g fill="none" stroke="#8e6c39" opacity=".26"><path d="M80 540Q700 730 1730 210"/><path d="M80 549Q700 739 1730 219"/><path d="M80 558Q700 748 1730 228"/></g><ellipse cx="935" cy="558" rx="495" ry="28" fill="#000" opacity=".8"/><g transform="translate(465 155) rotate(-8 270 162.5)"><rect x="8" y="9" width="540" height="325" rx="3" fill="#080807" stroke="#6c5432"/><rect width="540" height="325" rx="3" fill="url(#paper)" stroke="url(#gold)" stroke-width="1.5"/><rect x="15" y="15" width="510" height="295" fill="none" stroke="#806139" opacity=".4"/><rect x="35" y="35" width="470" height="217" fill="#0a0907" stroke="#655132"/><circle cx="270" cy="141" r="66" fill="url(#orb)" stroke="#bfa06a"/><path d="M254 110l44 30-44 30z" fill="#dac08d"/><path d="M35 284h350" stroke="#94764b" opacity=".5"/><path d="M35 301h224" stroke="#94764b" opacity=".5"/></g><g transform="translate(1090 195) rotate(12 130 155)"><rect x="8" y="9" width="260" height="310" rx="3" fill="#080807" stroke="#6c5432"/><rect width="260" height="310" rx="3" fill="url(#paper)" stroke="url(#gold)" stroke-width="1.5"/><rect x="15" y="15" width="230" height="280" fill="none" stroke="#806139" opacity=".4"/><rect x="103" y="60" width="54" height="110" rx="27" fill="url(#orb)" stroke="#d4b177"/><path d="M86 126v20a44 44 0 0088 0v-20m-44 66v42m-40 0h80" fill="none" stroke="#d4b177" stroke-width="3"/><path d="M35 265h20l6-16 8 30 9-50 9 61 9-35 9 15h22l8-30 9 45 9-60 10 65 8-33 8 8h25" fill="none" stroke="#b99056"/></g><text x="95" y="126" fill="#987a48" font-family="Georgia" font-size="14" letter-spacing="5">VOLUME 02</text><text x="95" y="206" fill="url(#gold)" font-family="Georgia" font-size="76">02</text><path d="M98 243h58" stroke="#8e7043"/><text x="1700" y="622" text-anchor="end" fill="#9f8253" font-family="Georgia" font-size="13" letter-spacing="4">MOTION / SOUND</text></svg>
